<svg width="50" height="50" viewBox="0 0 50 50" fill="white" xmlns="http://www.w3.org/2000/svg"><circle cx="25" cy="25" r="24.5" stroke="#ECECEC" stroke-width="1"/><path fill="#444444" d="M12.61 32.95L12.61 18.28L22.23 18.28L22.23 19.91L14.44 19.91L14.44 24.64L22.07 24.64L22.07 26.27L14.44 26.27L14.44 31.33L22.23 31.33L22.23 32.95L12.61 32.95ZM24.54 25.63Q24.54 23.41 25.54 21.68Q26.54 19.95 28.27 18.99Q29.99 18.04 32.08 18.04L32.08 18.04Q35.56 18.04 37.78 20.79L37.78 20.79L36.33 21.69Q35.63 20.77 34.49 20.22Q33.36 19.67 32.08 19.67L32.08 19.67Q30.50 19.67 29.20 20.42Q27.90 21.18 27.17 22.55Q26.43 23.91 26.43 25.63L26.43 25.63Q26.43 27.34 27.17 28.71Q27.90 30.07 29.20 30.84Q30.50 31.61 32.08 31.61L32.08 31.61Q33.29 31.61 34.34 31.14Q35.38 30.67 36.02 30.03L36.02 30.03L36.02 27.04L30.98 27.04L30.98 25.41L37.85 25.41L37.85 30.71Q36.79 31.90 35.31 32.57Q33.82 33.24 32.08 33.24L32.08 33.24Q29.99 33.24 28.27 32.28Q26.54 31.33 25.54 29.59Q24.54 27.85 24.54 25.63L24.54 25.63Z"/></svg>